HIERARCHY
ROOT ui
{
	 OFFSET 0 0 0
	 CHANNELS 3 XPosition YPosition Z Position
	 EndSite
	 {
	 OFFSET 0 -1 0
	 }
}
ROOT li
{
	 OFFSET 0 0 0
	 CHANNELS 3 XPosition YPosition Z Position
	 EndSite
	 {
	 OFFSET 0 -1 0
	 }
}
ROOT ul
{
	 OFFSET 0 0 0
	 CHANNELS 3 XPosition YPosition Z Position
	 EndSite
	 {
	 OFFSET 0 -1 0
	 }
}
ROOT ll
{
	 OFFSET 0 0 0
	 CHANNELS 3 XPosition YPosition Z Position
	 EndSite
	 {
	 OFFSET 0 -1 0
	 }
}
ROOT tt
{
	 OFFSET 0 0 0
	 CHANNELS 3 XPosition YPosition Z Position
	 EndSite
	 {
	 OFFSET 0 -1 0
	 }
}
ROOT tb
{
	 OFFSET 0 0 0
	 CHANNELS 3 XPosition YPosition Z Position
	 EndSite
	 {
	 OFFSET 0 -1 0
	 }
}
ROOT td
{
	 OFFSET 0 0 0
	 CHANNELS 3 XPosition YPosition Z Position
	 EndSite
	 {
	 OFFSET 0 -1 0
	 }
}
ROOT v
{
	 OFFSET 0 0 0
	 CHANNELS 3 XPosition YPosition Z Position
	 EndSite
	 {
	 OFFSET 0 -1 0
	 }
}
ROOT bn
{
	 OFFSET 0 0 0
	 CHANNELS 3 XPosition YPosition Z Position
	 EndSite
	 {
	 OFFSET 0 -1 0
	 }
}
MOTION
Frames: 13
Frame Time: 0.002
-2.0884299278259278E-4	0.0018765289783477784	0		0.5813744506835937	-2.471226318359375	0		-1.068442138671875	0.07260562133789063	0		-0.6456469116210938	-2.633622314453125	0		1.377427001953125	-0.624577392578125	0		2.992912353515625	-0.0057760591506958005	0		4.47511865234375	0.25458737182617186	0		5.6186416015625	0.21843011474609375	0		-0.3628655700683594	5.909615234375	0		
0.00462022876739502	-0.0028422269821166994	0		0.5796435546875	-2.474009765625	0		-1.11750732421875	0.07579489135742187	0		-0.683364990234375	-2.6316787109375	0		1.3771690673828125	-0.6245614624023438	0		2.997958251953125	0.006796187877655029	0		4.47099609375	0.24791989135742187	0		5.6143486328125	0.23417509460449218	0		-0.3756990356445313	5.90021337890625	0		
-0.0025823469161987303	-0.00941025733947754	0		0.5670629272460938	-2.466645263671875	0		-1.04062451171875	0.07443772888183593	0		-0.61717236328125	-2.640008544921875	0		1.370815185546875	-0.6324481811523438	0		2.987770263671875	5.970050096511841E-4	0		4.470935546875	0.24726771545410156	0		5.6184375	0.21520477294921875	0		-0.24222340393066405	5.92200830078125	0		
-0.0027044320106506346	-0.009066901206970214	0		0.576314208984375	-2.4755458984375	0		-1.1117738037109375	0.07189108276367187	0		-0.6887872314453125	-2.63464404296875	0		1.3705631103515625	-0.6323912963867188	0		2.98272607421875	0.0063789992332458495	0		4.475765625	0.23861563110351564	0		5.6254375	0.2083872985839844	0		-0.3733870849609375	5.90106396484375	0		
0.00425972318649292	-0.001822319984436035	0		0.5866358032226563	-2.481463134765625	0		-1.0688480224609376	0.07489031219482421	0		-0.6415377197265625	-2.643789306640625	0		1.382163818359375	-0.6444741821289063	0		2.986412353515625	-0.008912727355957032	0		4.4587666015625	0.24430213928222655	0		5.6311728515625	0.23287872314453126	0		-0.3903436279296875	5.90369970703125	0		
0.007173648834228516	0.0014589359760284423	0		0.5641649780273438	-2.47396142578125	0		-1.1069559326171876	0.07589257049560547	0		-0.6730364990234375	-2.635953857421875	0		1.39105419921875	-0.634514892578125	0		3.019607421875	0.01545067310333252	0		4.477865234375	0.2575873107910156	0		5.63106982421875	0.23172991943359375	0		-0.38942364501953125	5.90408935546875	0		
-9.242110252380371E-4	0.0038672549724578856	0		0.5667749633789062	-2.463787109375	0		-1.0370091552734375	0.08045633697509766	0		-0.6555978393554688	-2.63677734375	0		1.3757764892578126	-0.6382357177734375	0		2.967371337890625	0.006954809188842773	0		4.474703125	0.25121551513671875	0		5.63096630859375	0.23071578979492188	0		-0.2373679656982422	5.9214755859375	0		
8.311589956283569E-4	-0.004873372077941894	0		0.5481939086914063	-2.471343505859375	0		-1.1181561279296874	0.07896265411376953	0		-0.6601517944335937	-2.640345458984375	0		1.375559814453125	-0.6381466674804688	0		2.997230712890625	0.0054196610450744625	0		4.47053369140625	0.24491668701171876	0		5.63086376953125	0.2298365936279297	0		-0.36991693115234375	5.90255859375	0		
-0.003336216926574707	-0.007558021068572998	0		0.5737164916992188	-2.47449755859375	0		-1.0733575439453125	0.07276225280761718	0		-0.6616344604492187	-2.641988037109375	0		1.37821923828125	-0.6480956420898437	0		2.982105712890625	0.005508533954620361	0		4.47451708984375	0.2505672912597656	0		5.63422314453125	0.20994491577148439	0		-0.23603945922851563	5.92208544921875	0		
-0.008397720336914062	-0.002255059003829956	0		0.5323134765625	-2.4747705078125	0		-1.1074212646484376	0.07757078552246094	0		-0.6840840454101562	-2.644384765625	0		1.3810750732421875	-0.6440482177734375	0		2.987166015625	0.019356479644775392	0		4.47441552734375	0.25032427978515626	0		5.6264306640625	0.2372552032470703	0		-0.388736328125	5.90841064453125	0		
0.006538816928863525	0.0027495310306549074	0		0.5760386962890625	-2.469208251953125	0		-1.069547607421875	0.0773624267578125	0		-0.6593587646484375	-2.637455322265625	0		1.3399183349609376	-0.6414081420898438	0		2.97483544921875	0.004460155963897705	0		4.47738916015625	0.2560887451171875	0		5.63345263671875	0.23478529357910155	0		-0.35427032470703124	5.91319140625	0		
0.0033683478832244873	-3.070399910211563E-5	0		0.5487299194335937	-2.468702880859375	0		-1.1076683349609375	0.07813855743408203	0		-0.6627367553710938	-2.6411865234375	0		1.3835733642578125	-0.6539268188476562	0		3.0098798828125	0.016941923141479492	0		4.4741962890625	0.24998054504394532	0		5.6404658203125	0.23069145202636718	0		-0.2348271484375	5.922771484375	0		
-0.0038564729690551756	-0.006785161972045898	0		0.570359619140625	-2.475886474609375	0		-1.0797823486328124	0.0789679412841797	0		-0.6650462646484375	-2.642971435546875	0		1.37748876953125	-0.6477760620117188	0		2.981589599609375	0.0053018579483032225	0		4.47408154296875	0.24987094116210937	0		5.6361875	0.2478316192626953	0		-0.235586669921875	5.92494775390625	0		
